<svg xmlns="http://www.w3.org/2000/svg" xmlns:xlink="http://www.w3.org/1999/xlink" width="864" height="800" viewBox="0 0 864 800">
  <defs>
    <filter id="Subtraction_1" x="411.319" y="0" width="452.682" height="800" filterUnits="userSpaceOnUse">
      <feOffset dx="-12" input="SourceAlpha" />
      <feGaussianBlur stdDeviation="2.5" result="blur" />
      <feFlood flood-opacity="0.231" />
      <feComposite operator="in" in2="blur" />
      <feComposite in="SourceGraphic" />
    </filter>
  </defs>
  <g id="Group_340" data-name="Group 340" transform="translate(-379 -259.501)">
    <rect id="Rectangle_1119" data-name="Rectangle 1119" width="864" height="785" rx="129" transform="translate(379 267)" fill="#f27f1b" />
    <g transform="matrix(1, 0, 0, 1, 379, 259.5)" filter="url(#Subtraction_1)">
      <path id="Subtraction_1-2" data-name="Subtraction 1" d="M-6485.124-724.129h-279.947a623.566,623.566,0,0,0-6.424-81.317c-2.127-15.093-3.975-30.394-5.493-45.48-1.447-14.384-2.642-29.046-3.551-43.58-1.679-26.831-2.459-53.837-2.386-82.56.061-23.941.733-49.537,2.054-78.249,1.18-25.639,2.754-51.307,4.277-76.13l0-.047c2.1-34.2,4.266-69.563,5.437-105.33.631-19.273.93-37.108.914-54.525-.018-19.566-.428-38.114-1.254-56.7-2.541-57.174-8.533-111.369-17.811-161.081h304.182a129.948,129.948,0,0,1,26,2.621,128.377,128.377,0,0,1,24.215,7.517A129.022,129.022,0,0,1-6413-1487.1a129.911,129.911,0,0,1,19.091,15.752,129.9,129.9,0,0,1,15.752,19.091,129.022,129.022,0,0,1,11.894,21.912,128.4,128.4,0,0,1,7.517,24.215,129.989,129.989,0,0,1,2.621,26v527a129.988,129.988,0,0,1-2.621,26,128.407,128.407,0,0,1-7.517,24.215A129.034,129.034,0,0,1-6378.156-781a129.915,129.915,0,0,1-15.752,19.092A129.9,129.9,0,0,1-6413-746.161a129.014,129.014,0,0,1-21.912,11.894,128.36,128.36,0,0,1-24.215,7.517A129.96,129.96,0,0,1-6485.124-724.129Z" transform="translate(7220.13 1516.63)" fill="#22fbff" />
    </g>
  </g>
</svg>
